<svg width="140" height="140" viewBox="0 0 140 140" fill="none" xmlns="http://www.w3.org/2000/svg">
<path d="M11.4641 7.42874C2.99182 11.9351 -0.223208 22.4571 4.28424 30.9305L35.2542 89.1535C39.7606 97.6257 50.2826 100.841 58.756 96.3344C67.2283 91.8269 70.4433 81.3049 65.9369 72.8326L34.9669 14.6097C30.4595 6.13632 19.9375 2.92129 11.4641 7.42874Z" fill="#EAB875"/>
<path d="M65.9369 72.8316L34.9669 14.6097C30.4595 6.13632 19.9375 2.92129 11.4641 7.42874C11.007 7.67227 10.568 7.93609 10.1418 8.21273C17.0717 5.40786 25.7192 9.24453 29.982 17.2607L60.9531 75.4826C65.217 83.4988 63.5646 92.8139 57.3664 96.9923C57.8342 96.7937 58.2988 96.5768 58.756 96.3333C67.2283 91.8269 70.4433 81.3049 65.9369 72.8316Z" fill="#C68D4E"/>
<path d="M33.5591 52.7061C32.1705 50.0957 25.7939 50.7729 19.3168 54.2175C18.6119 54.5924 17.9379 54.9855 17.2938 55.3892L22.2435 64.6936C22.9388 64.3849 23.6406 64.0452 24.3455 63.6714C30.8226 60.2257 34.9476 55.3166 33.5591 52.7061Z" fill="#FFF7AF"/>
<path d="M43.4103 71.2262C42.0218 68.6157 35.6451 69.2929 29.1681 72.7387C28.4642 73.1125 27.7902 73.5056 27.1451 73.9093L32.0947 83.2137C32.7901 82.9061 33.4918 82.5664 34.1968 82.1915C40.6738 78.7457 44.7989 73.8367 43.4103 71.2262Z" fill="#FFF7AF"/>
<path d="M9.46564 35.6975C8.76068 36.0724 8.0867 36.4644 7.44263 36.8692L12.3923 46.1735C13.0876 45.8648 13.7894 45.5252 14.4933 45.1503C20.9703 41.7056 25.0964 36.7965 23.7079 34.1861C22.3193 31.5756 15.9427 32.2517 9.46564 35.6975Z" fill="#FFF7AF"/>
<path d="M69.3175 5.25726V17.0129C69.3175 17.3611 69.5995 17.6431 69.9477 17.6431H87.2287C87.5769 17.6431 87.8589 17.3611 87.8589 17.0129V5.25726C87.8589 2.35413 85.5048 0 82.6016 0H74.5748C71.6716 0 69.3175 2.35413 69.3175 5.25726Z" fill="#ED5176"/>
<path d="M82.6016 0H77.9863C80.3597 0 82.2833 2.35413 82.2833 5.25726V17.0129C82.2833 17.3611 82.0526 17.6431 81.7685 17.6431H87.2287C87.5769 17.6431 87.8578 17.3611 87.8578 17.0129V5.25726C87.8589 2.35413 85.5048 0 82.6016 0Z" fill="#BA365F"/>
<path d="M86.3304 25.0719V17.6431H70.8459V25.0719C70.8459 26.9336 69.906 28.6725 68.3412 29.6829C65.6527 31.4186 61.6153 34.2694 60.4873 36.3885C55.4191 45.9151 57.9677 79.5511 57.9677 79.5511H99.2076C99.2076 79.5511 101.756 45.9151 96.6879 36.3885C95.56 34.2694 91.5225 31.4186 88.8341 29.6829C87.2703 28.6725 86.3304 26.9336 86.3304 25.0719Z" fill="#804C68"/>
<path d="M96.6879 36.3885C95.5611 34.2705 91.5225 31.4197 88.8341 29.6829C87.2704 28.6736 86.3304 26.9336 86.3304 25.0719V17.6431H81.0336V25.0719C81.0336 26.9336 81.8027 28.6725 83.0812 29.6829C85.2783 31.4186 88.5788 34.2694 89.5006 36.3885C93.6427 45.9151 91.5599 79.5511 91.5599 79.5511H99.2087C99.2087 79.5511 101.756 45.9151 96.6879 36.3885Z" fill="#60364E"/>
<path d="M109.704 48.7584H83.8855L76.1299 58.506V104.243H117.458V58.506L109.704 48.7584Z" fill="#E9E9EA"/>
<path d="M109.704 48.7584H104.555L111.12 58.506V104.243H117.458V58.506L109.704 48.7584Z" fill="#C5C4CC"/>
<path d="M86.3774 37.8284H107.211C108.588 37.8284 109.704 38.9435 109.704 40.3203V48.7584H83.8855V40.3203C83.8855 38.9435 85.0006 37.8284 86.3774 37.8284Z" fill="#C8E7F7"/>
<path d="M107.211 37.8284H102.261C103.528 37.8284 104.555 38.8548 104.555 40.1216V48.7584H109.704V40.3203C109.704 38.9445 108.588 37.8284 107.211 37.8284Z" fill="#8CBCD6"/>
<path d="M57.5415 57.2478C57.5469 57.2435 57.5511 57.2403 57.5565 57.236C61.297 54.2229 61.313 54.209 70.1602 47.0825C70.4849 46.823 70.7872 46.5271 71.0596 46.1928C73.1381 43.6454 72.7579 39.8963 70.2104 37.8177C67.663 35.7402 63.9139 36.1205 61.8353 38.6669C61.563 39.0012 61.3333 39.3569 61.1453 39.7264C55.9393 49.8244 55.9287 49.8436 53.7283 54.1129C53.7251 54.1182 53.7219 54.1236 53.7198 54.1289C53.7187 54.13 53.7187 54.131 53.7177 54.1321C53.1825 55.1682 53.425 56.4723 54.3649 57.2393C55.3049 58.0062 56.6304 57.9827 57.5383 57.2489C57.5394 57.2489 57.5404 57.2489 57.5415 57.2478Z" fill="#7FAB38"/>
<path d="M49.3352 57.2478C49.3298 57.2435 49.3256 57.2403 49.3202 57.236C45.5797 54.2229 45.5626 54.209 36.7154 47.0825C36.3918 46.823 36.0895 46.5271 35.816 46.1928C33.7386 43.6454 34.1188 39.8963 36.6663 37.8177C39.2126 35.7402 42.9628 36.1205 45.0403 38.6669C45.3137 39.0012 45.5423 39.3569 45.7314 39.7264C50.9373 49.8244 50.948 49.8436 53.1483 54.1129C53.1516 54.1182 53.1537 54.1236 53.1569 54.1289C53.158 54.13 53.158 54.131 53.158 54.1321C53.6942 55.1682 53.4517 56.4723 52.5118 57.2393C51.5718 58.0062 50.2452 57.9827 49.3373 57.2489C49.3362 57.2489 49.3352 57.2489 49.3352 57.2478Z" fill="#7FAB38"/>
<path d="M57.2317 55.4266C57.2339 55.417 57.236 55.4074 57.2381 55.3989C58.7655 48.1699 58.773 48.1378 62.3865 31.0416C62.521 30.4178 62.5926 29.7716 62.5926 29.1072C62.5926 24.0507 58.4942 19.9524 53.4378 19.9524C48.3813 19.9524 44.283 24.0507 44.283 29.1072C44.283 29.7716 44.3556 30.4178 44.4891 31.0416C48.1036 48.1378 48.11 48.1699 49.6385 55.3989C49.6406 55.4074 49.6417 55.417 49.6438 55.4266C49.6449 55.4277 49.6449 55.4298 49.6449 55.4309H49.646C50.0155 57.1869 51.5718 58.506 53.4378 58.506C55.3038 58.506 56.8611 57.1869 57.2307 55.4309C57.2307 55.4298 57.2317 55.4277 57.2317 55.4266Z" fill="#AED559"/>
<path d="M68.7567 70.4454C68.9864 69.3762 69.1113 68.2675 69.1113 67.1289C69.1113 58.4729 62.0938 51.4554 53.4378 51.4554C44.7818 51.4554 37.7643 58.4729 37.7643 67.1289C37.7643 68.2675 37.8893 69.3762 38.12 70.4454C44.566 100.609 44.581 100.681 47.1925 112.899C47.7747 115.816 50.3488 118.015 53.4378 118.015C56.5268 118.015 59.102 115.816 59.6841 112.899C62.2946 100.681 62.3106 100.609 68.7567 70.4454Z" fill="#FFCD34"/>
<path d="M53.4378 51.4554C52.8034 51.4554 52.1807 51.4981 51.5654 51.5707C57.6793 52.4968 62.4218 59.1063 62.4218 67.1289C62.4218 68.2675 62.3235 69.3762 62.1419 70.4454C57.0716 100.609 57.0598 100.681 55.0058 112.898C54.6448 115.199 53.3065 117.048 51.5665 117.73C52.1582 117.911 52.7863 118.015 53.4378 118.015C56.5268 118.015 59.1021 115.816 59.6842 112.898C62.2946 100.681 62.3107 100.609 68.7567 70.4454C68.9875 69.3762 69.1114 68.2675 69.1114 67.1289C69.1114 58.4729 62.0938 51.4554 53.4378 51.4554Z" fill="#E69012"/>
<path d="M15.9417 83.2905L17.108 93.2689L17.9807 100.721L21.8109 133.463C22.2467 137.19 25.4041 140 29.1564 140H110.862C114.614 140 117.771 137.19 118.207 133.463L124.077 83.2905H15.9417Z" fill="#AED559"/>
<path d="M123.332 89.6597L124.077 83.2905H15.9417L16.6861 89.6597H123.332Z" fill="#7FAB38"/>
<path d="M117.034 83.2905L111.165 133.463C110.729 137.19 107.572 140 103.82 140H110.862C114.614 140 117.771 137.19 118.207 133.463L124.077 83.2905H117.034Z" fill="#7FAB38"/>
<path d="M8.28107 72.4876V79.3834C8.28107 81.541 10.0306 83.2906 12.1882 83.2906H127.83C129.987 83.2906 131.737 81.541 131.737 79.3834V72.4876C131.737 70.329 129.987 68.5794 127.83 68.5794H12.1882C10.0306 68.5794 8.28107 70.329 8.28107 72.4876Z" fill="#90B6E1"/>
<path d="M127.83 68.5794H120.675C122.832 68.5794 124.582 70.329 124.582 72.4876V79.3834C124.582 81.541 122.832 83.2906 120.675 83.2906H127.83C129.987 83.2906 131.737 81.541 131.737 79.3834V72.4876C131.737 70.329 129.987 68.5794 127.83 68.5794Z" fill="#5692D8"/>
<path d="M134.682 128.253C133.146 128.47 131.559 127.772 130.71 126.359L102.672 79.6355C101.54 77.7502 102.151 75.3053 104.036 74.1742C105.922 73.0431 108.366 73.654 109.498 75.5392L137.536 122.263C138.667 124.147 138.056 126.593 136.172 127.724C135.7 128.007 135.194 128.18 134.682 128.253Z" fill="#575B7A"/>
<path d="M5.33628 128.253C6.87223 128.47 8.45945 127.772 9.3086 126.359L37.3466 79.6355C38.4778 77.7502 37.8668 75.3053 35.9826 74.1742C34.0974 73.0431 31.6525 73.654 30.5214 75.5392L2.48227 122.263C1.35114 124.148 1.9621 126.593 3.84626 127.724C4.31836 128.007 4.82465 128.18 5.33628 128.253Z" fill="#575B7A"/>
<path d="M46.0764 103.85C46.0764 105.799 44.4966 107.38 42.5463 107.38C40.597 107.38 39.0172 105.799 39.0172 103.85V96.8599C39.0172 94.9106 40.597 93.3298 42.5463 93.3298C44.4956 93.3298 46.0764 94.9106 46.0764 96.8599V103.85Z" fill="#7FAB38"/>
<path d="M59.808 126.688C59.808 128.637 58.2272 130.218 56.2779 130.218C54.3286 130.218 52.7478 128.637 52.7478 126.688V119.698C52.7478 117.749 54.3286 116.168 56.2779 116.168C58.2272 116.168 59.808 117.749 59.808 119.698V126.688Z" fill="#7FAB38"/>
<path d="M73.5387 103.85C73.5387 105.799 71.9589 107.38 70.0096 107.38C68.0603 107.38 66.4795 105.799 66.4795 103.85V96.8599C66.4795 94.9106 68.0603 93.3298 70.0096 93.3298C71.9589 93.3298 73.5387 94.9106 73.5387 96.8599V103.85Z" fill="#7FAB38"/>
<path d="M87.2704 126.688C87.2704 128.637 85.6896 130.218 83.7403 130.218C81.791 130.218 80.2101 128.637 80.2101 126.688V119.698C80.2101 117.749 81.791 116.168 83.7403 116.168C85.6896 116.168 87.2704 117.749 87.2704 119.698V126.688Z" fill="#7FAB38"/>
<path d="M101.001 103.85C101.001 105.799 99.4213 107.38 97.4709 107.38C95.5216 107.38 93.9418 105.799 93.9418 103.85V96.8599C93.9418 94.9106 95.5216 93.3298 97.4709 93.3298C99.4202 93.3298 101.001 94.9106 101.001 96.8599V103.85Z" fill="#7FAB38"/>
<path d="M113.948 60.5568H103.506C102.372 60.5568 101.455 59.6382 101.455 58.506C101.455 57.3727 102.372 56.4552 103.506 56.4552H113.948C115.081 56.4552 115.998 57.3727 115.998 58.506C115.998 59.6382 115.081 60.5568 113.948 60.5568Z" fill="#C5C4CC"/>
</svg>